<svg xmlns="http://www.w3.org/2000/svg" viewBox="0 0 128 128"><defs><radialGradient id="g"><stop stop-color="#164e63"/><stop offset="1" stop-color="#07111f"/></radialGradient></defs><rect width="128" height="128" rx="24" fill="url(#g)"/><path d="M32 66V43c0-7 11-7 11 0V31c0-8 12-8 12 0v10V27c0-8 12-8 12 0v14V30c0-8 12-8 12 0v22l8-8c6-6 14 2 9 9L78 79v21H45V86c-8-4-13-11-13-20Z" fill="#67e8f9" stroke="#ecfeff" stroke-width="5" stroke-linejoin="round"/><path d="M42 57h38M48 72h31" stroke="#0e7490" stroke-width="5" stroke-linecap="round"/></svg>